
<svg width="210" height="155" viewBox="0 0 210 155" fill="none" xmlns="http://www.w3.org/2000/svg">
<mask id="mask0_112_52" style="mask-type:luminance" maskUnits="userSpaceOnUse" x="27" y="0" width="155" height="155">
<path d="M182 0H27V155H182V0Z" fill="white"/>
</mask>
<g mask="url(#mask0_112_52)">
<path d="M104.5 0C147.302 0 182 34.6978 182 77.5C182 120.302 147.302 155 104.5 155C61.6978 155 27 120.302 27 77.5C27 34.6977 61.6977 0 104.5 0Z" fill="url(#paint0_radial_112_52)"/>
<path d="M104.119 0.912964C146.039 0.912964 180.022 34.896 180.022 76.8162C180.022 118.736 146.039 152.719 104.119 152.719C62.1989 152.719 28.216 118.736 28.216 76.8162C28.216 34.896 62.1989 0.912964 104.119 0.912964Z" fill="url(#paint1_radial_112_52)"/>
<path d="M34.7949 76.8162C34.7949 115.104 65.8325 146.14 104.119 146.14C142.405 146.14 173.444 115.104 173.444 76.8162C173.444 38.5298 142.407 7.49243 104.119 7.49243C65.8309 7.49243 34.7949 38.5298 34.7949 76.8162Z" fill="url(#paint2_radial_112_52)"/>
<mask id="mask1_112_52" style="mask-type:luminance" maskUnits="userSpaceOnUse" x="34" y="7" width="140" height="140">
<path d="M34.7949 76.8162C34.7949 115.104 65.8325 146.14 104.119 146.14C142.405 146.14 173.444 115.104 173.444 76.8162C173.444 38.5298 142.407 7.49243 104.119 7.49243C65.8309 7.49243 34.7949 38.5298 34.7949 76.8162Z" fill="white"/>
</mask>
<g mask="url(#mask1_112_52)">
<path d="M173.444 7.49243H34.7949V146.14H173.444V7.49243Z" fill="url(#paint3_radial_112_52)"/>
</g>
<mask id="mask2_112_52" style="mask-type:luminance" maskUnits="userSpaceOnUse" x="35" y="8" width="138" height="138">
<path d="M35.367 76.8163C35.367 114.787 66.1485 145.569 104.12 145.569C142.091 145.569 172.872 114.789 172.872 76.8163C172.872 38.8452 142.091 8.06372 104.12 8.06372C66.1485 8.06372 35.367 38.8452 35.367 76.8163Z" fill="white"/>
</mask>
<g mask="url(#mask2_112_52)">
<path d="M172.872 8.06445H35.367V145.568H172.872V8.06445Z" fill="url(#paint4_radial_112_52)"/>
</g>
<path d="M131.1 54.7105C129.026 58.3219 126.249 61.48 122.931 63.9977C119.614 66.5153 115.825 68.3411 111.789 69.3667C107.753 70.3925 103.552 70.5971 99.4358 69.9687C95.3192 69.3402 91.3707 67.8914 87.8246 65.7081C85.2141 64.0931 82.8525 62.107 80.814 59.812C75.4485 53.7632 72.6542 45.8599 73.0254 37.7827C73.0696 36.879 73.1454 35.9778 73.2636 35.0807C73.3803 34.1966 73.5361 33.3165 73.7285 32.4468C73.9258 31.5541 74.1623 30.6716 74.4382 29.7992C74.7059 28.9501 75.0109 28.1138 75.3535 27.2902C75.7084 26.4342 76.1043 25.5961 76.5313 24.7738C76.9811 23.9078 77.4793 23.0654 78.0114 22.2476C78.502 21.4932 79.0247 20.7616 79.5791 20.0527C80.1808 19.2798 80.82 18.5343 81.4946 17.8242C82.1753 17.1075 82.8865 16.4227 83.6282 15.7697C84.3835 15.1044 85.1754 14.482 85.9914 13.8932C86.4121 13.5896 86.8407 13.2977 87.277 13.0172C78.4109 17.5473 71.667 25.3641 68.4857 34.7986C65.3044 44.2333 65.9377 54.5377 70.2504 63.5116C70.3358 63.6889 70.4226 63.8656 70.5108 64.0415C70.5508 64.1215 70.5911 64.2013 70.6317 64.281C70.6508 64.3312 70.6753 64.3793 70.705 64.4241C70.7556 64.4802 70.7683 64.4707 70.8455 64.4693C71.2478 64.462 71.6507 64.4639 72.0531 64.4726C72.7965 64.4887 73.5387 64.531 74.2798 64.5998C81.133 65.2477 87.5786 68.1473 92.6098 72.8455C97.6411 77.5437 100.974 83.7761 102.089 90.569C102.593 93.6767 102.627 96.8426 102.189 99.9604C101.359 105.841 98.8582 111.359 94.9841 115.86C92.7628 118.439 90.1389 120.641 87.2142 122.382C81.3757 125.83 74.5728 127.282 67.8354 126.518C66.6169 126.378 65.4076 126.168 64.2135 125.889C63.4402 125.707 62.6745 125.494 61.9172 125.253C65.3189 126.761 68.9242 127.759 72.6168 128.215C76.0621 128.64 79.549 128.598 82.9831 128.09C89.1246 127.175 94.9484 124.769 99.9456 121.084C103.613 118.381 106.77 115.047 109.27 111.238C109.378 111.073 109.485 110.907 109.591 110.74C109.632 110.675 109.723 110.573 109.712 110.505C109.67 110.397 109.615 110.295 109.548 110.201C109.339 109.81 109.139 109.415 108.948 109.015C108.563 108.212 108.213 107.394 107.898 106.559C107.261 104.869 106.773 103.126 106.44 101.351C105.727 97.5347 105.73 93.6191 106.447 89.8034C107.057 86.5621 108.182 83.4395 109.78 80.5541C112.446 75.7121 116.355 71.6688 121.105 68.8411C125.854 66.0133 131.271 64.5034 136.798 64.4673C137.562 64.4619 138.325 64.484 139.087 64.5335C139.822 64.5825 140.555 64.6563 141.286 64.7548C142.01 64.8537 142.729 64.9783 143.445 65.1285C144.145 65.2764 144.84 65.4475 145.529 65.6421C146.204 65.8336 146.873 66.0478 147.534 66.2848C148.204 66.5256 148.865 66.789 149.518 67.0753C150.182 67.3656 150.836 67.6803 151.478 68.019C152.12 68.3566 152.749 68.7159 153.367 69.0972C153.947 69.4558 154.516 69.8315 155.07 70.229C155.642 70.6389 156.2 71.066 156.745 71.5102C157.307 71.9678 157.85 72.4498 158.378 72.9466C158.94 73.4756 159.481 74.0252 160.002 74.5955C160.522 75.1623 161.02 75.7487 161.496 76.3546C162.027 77.0287 162.532 77.7238 163.004 78.4404C163.489 79.1767 163.947 79.932 164.37 80.7062C164.959 81.7859 165.483 82.8996 165.941 84.0412C166.434 85.2823 166.85 86.5528 167.186 87.8453C166.277 80.9325 163.487 74.402 159.119 68.9674C155.908 64.9659 151.926 61.6494 147.41 59.2145C142.779 56.7185 137.678 55.2138 132.433 54.7964C131.989 54.7609 131.545 54.7331 131.1 54.713V54.7105Z" fill="url(#paint5_radial_112_52)"/>
</g>
<defs>
<radialGradient id="paint0_radial_112_52" cx="0" cy="0" r="1" gradientUnits="userSpaceOnUse" gradientTransform="translate(104.5 77.5) scale(77.5)">
<stop offset="0.91341"/>
<stop offset="1" stop-opacity="0"/>
</radialGradient>
<radialGradient id="paint1_radial_112_52" cx="0" cy="0" r="1" gradientUnits="userSpaceOnUse" gradientTransform="translate(104.119 76.8163) scale(75.9032)">
<stop offset="0.99" stop-color="white"/>
<stop offset="0.99505" stop-color="#FDFDFD"/>
<stop offset="0.99687" stop-color="#F6F6F6"/>
<stop offset="0.99817" stop-color="#EBEBEB"/>
<stop offset="0.99921" stop-color="#DADADA"/>
<stop offset="1" stop-color="#C7C7C7"/>
</radialGradient>
<radialGradient id="paint2_radial_112_52" cx="0" cy="0" r="1" gradientUnits="userSpaceOnUse" gradientTransform="translate(104.119 76.8162) scale(69.3239 69.3239)">
<stop offset="0.99" stop-opacity="0.5"/>
<stop offset="1" stop-opacity="0"/>
</radialGradient>
<radialGradient id="paint3_radial_112_52" cx="0" cy="0" r="1" gradientUnits="userSpaceOnUse" gradientTransform="translate(104.119 76.8162) scale(69.3239 69.3239)">
<stop offset="0.99" stop-opacity="0.5"/>
<stop offset="1" stop-opacity="0"/>
</radialGradient>
<radialGradient id="paint4_radial_112_52" cx="0" cy="0" r="1" gradientUnits="userSpaceOnUse" gradientTransform="translate(104.119 77.0531) scale(68.7515)">
<stop/>
<stop offset="1" stop-color="#322F32"/>
</radialGradient>
<radialGradient id="paint5_radial_112_52" cx="0" cy="0" r="1" gradientUnits="userSpaceOnUse" gradientTransform="translate(114.551 70.7626) scale(55.2474 60.612)">
<stop stop-color="#C2C0C2"/>
<stop offset="1" stop-color="#EBEBEB"/>
</radialGradient>
</defs>
</svg>

