<svg width="210" height="155" viewBox="0 0 210 155" fill="none" xmlns="http://www.w3.org/2000/svg">
<g clip-path="url(#clip0_113_2)">
<path d="M121.893 7.44494C121.891 6.75767 122.128 6.62436 122.756 6.62299L134.823 6.59595C135.217 6.59506 135.342 7.09895 135.342 7.49302C135.342 7.49302 135.399 9.19222 135.32 9.92596C135.316 10.765 134.441 10.7339 134.192 10.7342L122.775 10.7432C122.286 10.7435 121.903 10.686 121.901 9.98911L121.893 7.44494Z" fill="#CBCBD0" fill-opacity="0.99608" stroke="#313131" stroke-width="2" stroke-linejoin="round"/>
<path d="M121.893 14.0684C121.891 13.3811 122.128 13.2456 122.756 13.2464L140.125 13.2685C140.519 13.269 140.644 13.7715 140.644 14.1656C140.644 14.1656 140.59 16.1623 140.622 16.5985C140.683 17.3428 139.743 17.4073 139.494 17.4067L122.775 17.3666C122.285 17.3654 121.902 17.3094 121.9 16.6125L121.893 14.0684Z" fill="#E8E8E8" fill-opacity="0.99608" stroke="#313131" stroke-width="2" stroke-linejoin="round"/>
<path d="M121.893 0.821952C121.891 0.134689 122.128 -0.00079477 122.756 3.4965e-06L140.125 0.0220962C140.519 0.0225974 140.644 0.525093 140.644 0.919171C140.644 0.919171 140.616 2.76734 140.622 3.35211C140.542 4.19663 139.743 4.16089 139.494 4.16031L122.775 4.12017C122.285 4.11902 121.902 4.06299 121.9 3.36612L121.893 0.821952Z" fill="#AFAFBB" fill-opacity="0.99608" stroke="#313131" stroke-width="2" stroke-linejoin="round"/>
<path d="M30.8671 20.859L28.749 20.7612L28.7276 24.2913L178.859 24.6208L178.823 21.255L30.8671 20.859Z" fill="#ECE3E3" fill-opacity="0.99608" stroke="#373737" stroke-opacity="0.99608" stroke-width="3.2693" stroke-linejoin="round"/>
<path d="M146.475 0.271973C145.678 0.347085 145.107 0.659207 145.314 1.79125L145.308 17.5956C146.957 17.6431 148.606 17.6213 150.254 17.6372L150.162 11.4768H153.521L160.17 17.6301L165.457 17.4707L165.38 15.8484L159.475 10.9599L162.348 10.8836C163.519 10.1901 163.609 9.58118 163.837 8.67404L163.864 2.47416C163.618 1.0493 162.171 0.434593 160.619 0.526128L146.475 0.271973ZM159.107 4.17754L159.131 7.5331L150.079 7.53656L150.061 4.2061L159.107 4.17754Z" fill="url(#paint0_linear_113_2)" stroke="#313131" stroke-width="2" stroke-linejoin="round"/>
<path d="M96.9959 0.489302C96.9959 0.489302 96.9516 11.0592 96.8807 16.3438C96.8751 16.7586 96.9273 17.4282 97.4689 17.4221L101.047 17.3814C101.505 17.3763 101.682 16.7485 101.683 16.2909L101.699 11.3953L113.206 11.4109C114.482 11.4126 116.575 9.63689 116.559 8.20431L116.507 3.46704C116.505 3.23225 115.937 0.539221 113.419 0.567071C107.786 0.629372 102.629 0.484814 96.9959 0.489302ZM102.064 4.1922L111.563 4.37842L111.643 7.46115L102.064 7.47934L102.064 4.1922Z" fill="url(#paint1_linear_113_2)" stroke="#313131" stroke-width="2" stroke-linejoin="round"/>
<path d="M4.06569 131.14L18.6514 78.3209L40.9509 77.859L39.5633 96.2666L57.7026 78.1171L75.7288 94.3153L58.9337 112.413L75.5962 141.409L51.3728 154.368L36.4066 123.883L35.3507 137.364L4.00281 137.007C1.99627 136.984 3.53143 133.072 4.06555 131.138L4.06569 131.14Z" fill="#FEB500" fill-opacity="0.99608" stroke="black" stroke-width="5" stroke-linejoin="round"/>
<path d="M20.1663 80.3919L35.387 84.1155L38.7431 80.0108L20.1663 80.3919Z" fill="url(#paint2_linear_113_2)"/>
<path d="M35.387 84.1172L38.7431 80.0125L37.6523 101.187L35.387 84.1172Z" fill="#FE3300" fill-opacity="0.99608"/>
<path d="M56.7899 111.64L66.766 94.5403L73.3806 94.4015L56.7899 111.64Z" fill="#FF4D00" fill-opacity="0.99608"/>
<path d="M45.4057 93.1819L37.6532 101.188L38.5197 89.6642L45.4057 93.1819Z" fill="black" fill-opacity="0.99608"/>
<path d="M69.6717 0.2858L73.8637 0.238777L74.2531 13.6891L84.8736 13.4901L84.7006 0.16394L89.4414 0.246085C89.4414 0.246085 89.4911 3.78822 89.6416 14.5124C89.6678 16.3821 87.8759 17.5046 85.8956 17.5093L73.0027 17.5398C71.6491 17.5429 69.7081 14.9085 69.7047 13.5549L69.6717 0.2858Z" fill="url(#paint3_linear_113_2)" stroke="#313131" stroke-width="2" stroke-linejoin="round"/>
<path d="M94.5435 24.5615C97.3369 57.3663 94.2631 24.5615 97.0565 57.3663L100.621 61.8716L108.075 61.5821L111.378 59.145L110.518 22.2766L135.065 21.1246L135.513 23.4671L151.234 19.7106L160.594 36.4893L174.009 24.9206L198.16 33.9876L197.636 37.2493L172.543 57.1146L188.207 85.4628L159.858 94.4181L151.426 74.6241L134.013 89.0475L129.585 85.1951L126.754 88.1535L90.309 91.6434C85.3305 87.6293 80.0894 82.858 75.0839 78.8782L72.2144 51.3247L72.0838 25.2835C79.576 25.6145 87.0642 24.9402 94.5444 24.5611L94.5435 24.5615Z" fill="#FFDD0B" fill-opacity="0.99608" stroke="black" stroke-opacity="0.99608" stroke-width="5" stroke-linejoin="round"/>
<path d="M108.926 67.8591L117.022 63.1671L112.664 60.178L108.631 63.6871L99.1289 63.9367L108.926 67.8591Z" fill="url(#paint4_linear_113_2)"/>
<path d="M132.736 72.2895L133.407 23.4844C134.253 33.2441 134.565 44.426 134.837 54.6594L135.631 73.8856L132.736 72.2895Z" fill="url(#paint5_linear_113_2)"/>
<path d="M134.386 38.1166L135.049 59.7164L142.206 54.0314L134.386 38.1166Z" fill="black" fill-opacity="0.99608"/>
<path d="M177.381 28.4079L190.171 36.6132L176.409 51.8543L196.419 35.5382L177.381 28.4079Z" fill="#FE4800" fill-opacity="0.99608"/>
<path d="M90.7473 89.4789L123.941 83.6875L132.739 72.2917L135.634 73.8868L126.017 86.9793L90.7473 89.4789Z" fill="url(#paint6_linear_113_2)"/>
<path d="M117.019 63.1671L113.16 23.5939L112.376 23.5818L112.661 60.1783L117.019 63.1671Z" fill="url(#paint7_linear_113_2)"/>
<path d="M134.479 87.0796L133.754 83.3145L151.788 69.8269L161.581 92.1766L159.646 90.7767L151.349 73.1483L134.479 87.0796Z" fill="url(#paint8_linear_113_2)"/>
<path d="M135.486 62.8833L146.237 54.7924L134.387 38.1161L133.412 23.4852L134.692 25.3902L150.618 21.8217L160.179 38.2983L174.432 27.155L177.383 28.4074L190.172 36.6127L176.411 51.8538L170.519 57.2647L185.817 85.6334C176.494 91.486 176.736 88.3423 161.583 92.1747L151.544 70.0361L133.756 83.3131L134.481 87.0782L128.937 83.0059L135.635 73.887L135.486 62.8833Z" fill="url(#paint9_linear_113_2)"/>
<path d="M66.6782 117.631L75.8184 88.6109L86.8792 89.4798C88.6547 90.2815 90.1273 91.6478 91.644 91.5231C123.349 88.9178 103.202 90.9496 124.483 88.94L129.205 85.7676L133.834 88.6339L141.854 85.2891L150.048 90.0255L156.428 89.3391L160.344 99.7733L188.777 86.7417L204.255 86.3865L206.17 115.126L185.609 115.911L189.698 144.581L160.899 147.885L161.156 145.609L140.402 153.594L133.319 142.739L133.564 150.662L113.191 155L110.059 151.279L92.3147 149.902L90.0678 140.653L81.8048 140.391L79.4717 149.23L57.8346 147.743L66.6782 117.631Z" stroke="black" stroke-opacity="0.99608" stroke-width="5" stroke-linejoin="bevel"/>
<path d="M141.675 87.5941C111.606 94.6663 141.673 87.595 111.606 94.6663L112.035 149.964L112.954 151.453L127.257 144.901L129.666 134.21L130.611 133.537L130.835 135.201L140.402 153.589L156.233 141.21L148.524 127L147.091 125.413L152.367 124.522C153.518 117.497 152.367 124.522 153.518 117.497L148.776 94.2891L141.675 87.5941ZM127.782 104.869L132.487 104.989L134.748 106.994L135.177 111.412L128.804 113.928L127.782 104.869Z" fill="url(#paint10_linear_113_2)"/>
<path d="M68.257 124.368L77.8225 93.436C86.0717 91.8634 94.1337 93.0906 99.8826 92.7879L111.575 145.083L93.959 148.038L94.2953 136.961L81.4281 138.648L79.8025 139.841L78.1058 147.176L62.5108 145.98L68.257 124.368Z" fill="url(#paint11_linear_113_2)"/>
<path d="M83.5895 126.19C83.4491 125.466 86.2886 115.909 86.2886 115.909L89.2544 126.953L83.5895 126.19Z" fill="black" fill-opacity="0.99608"/>
<path d="M132.04 102.123L125.697 103.995L127.293 115.908L135.632 114.304L137.679 111.637L135.632 104.527L132.04 102.123ZM132.557 106.736L133.088 110.312L130.75 110.814L130.539 106.776L132.557 106.736Z" fill="black" fill-opacity="0.99608"/>
<path d="M99.9939 92.7517L109.567 124.083L106.573 92.2692L99.9939 92.7517Z" fill="black" fill-opacity="0.99608"/>
<path d="M131.237 143.003L130.638 134.845L136.407 143.631L131.237 143.003Z" fill="black" fill-opacity="0.99608"/>
<path d="M156.835 114.709L157.512 118.942L152.365 124.523L146.872 125.344L162.802 141.426C162.979 137.708 162.591 114.755 162.591 114.755L156.835 114.709ZM158.126 124.169L158.033 130.177L155.344 127.644L158.126 124.169Z" fill="black" fill-opacity="0.99608"/>
<path d="M82.3211 127.844L93.5133 130.823L86.2468 115.801L89.2537 126.951L83.5887 126.188L86.2468 115.801L82.3211 127.844Z" fill="#FF2700" fill-opacity="0.99608"/>
<path d="M129.676 115.449L137.123 115.746L140.755 111.159L139.171 103.436L132.042 102.122L135.634 104.526L137.681 111.636L135.634 114.303L129.676 115.449Z" fill="#FF5200" fill-opacity="0.99608"/>
<path d="M82.5429 138.439L94.2947 136.961L93.9584 148.038L111.574 145.083L112.057 149.521L93.9584 148.038L91.989 140.115L90.0813 138.645L82.5429 138.439Z" fill="#FF1600" fill-opacity="0.99608"/>
<path d="M99.9926 92.7517L110.997 145.127L111.606 144.939L109.566 124.083L99.9926 92.7517Z" fill="url(#paint12_linear_113_2)"/>
<path d="M162.803 141.428L162.784 145.602L159.919 143.43L162.803 141.428Z" fill="black"/>
<path d="M112.952 151.455L127.1 144.768L131.522 149.008L112.952 151.455Z" fill="#FF3600" fill-opacity="0.99608"/>
<path d="M127.099 144.768L129.413 134.283L130.732 133.614L131.48 149.075L127.099 144.768Z" fill="#FF1800" fill-opacity="0.99608"/>
<path d="M144.293 149.823L156.232 141.212L163.886 142.52L144.293 149.823Z" fill="#FF3600" fill-opacity="0.99608"/>
<path d="M148.523 127.002L156.232 141.211L163.887 142.52L148.523 127.002Z" fill="url(#paint13_linear_113_2)"/>
<path d="M131.481 149.078L113.972 152.743L112.953 151.458L131.481 149.078Z" fill="black" fill-opacity="0.99608"/>
<path d="M110.633 149.407L112.033 149.521L112.954 151.457L111.644 149.94L110.633 149.407Z" fill="black" fill-opacity="0.99608"/>
<path d="M125.122 90.8005L132.144 89.7011L129.678 88.1418L125.122 90.8005Z" fill="black" fill-opacity="0.99608"/>
<path d="M141.675 87.5941L148.725 94.237L153.518 117.501L152.367 124.526L156.906 119.614L150.545 92.1278L141.675 87.5941Z" fill="url(#paint14_linear_113_2)"/>
<path d="M43.3422 11.7188C43.3426 12.8484 43.1177 13.978 43.6392 15.1076C43.9296 15.7365 44.5816 17.1775 45.8851 17.1775H60.0371C62.1593 17.1775 62.1764 15.1894 62.1816 14.821L62.2632 9.04248C62.2391 7.73625 60.4383 6.91736 59.2691 6.90029L47.7913 6.7326L47.7607 3.9953L58.1972 3.87582L58.2031 5.69494L62.1073 5.63856C62.0026 2.18623 62.3947 3.50368 62.0026 2.18623C61.7615 1.37607 60.9102 0.467337 59.641 0.464277L46.2199 0.431768C45.0446 0.429107 43.6345 1.39861 43.5886 2.18419C43.4843 3.96814 43.4093 5.5723 43.4964 7.37115C43.5801 9.10011 44.5084 10.1689 45.6146 10.2102C49.8964 10.37 53.8807 10.2486 58.1718 10.3068L58.1097 13.31L47.6714 13.2796L47.6183 11.758L43.3422 11.7188Z" fill="url(#paint15_linear_113_2)" stroke="#383838" stroke-opacity="0.94902" stroke-width="2" stroke-linejoin="round"/>
<path d="M13.3123 37.0114L72.2377 14.6165L77.6672 25.417L84.9882 40.4683L63.2851 50.0347L75.2423 78.1554L50.3288 88.0743L40.1824 60.8357L22.9864 69.4095C18.8258 59.2657 16.8779 47.509 13.3114 37.0114H13.3123Z" fill="#FF9B02" stroke="black" stroke-width="5" stroke-linejoin="round"/>
<path d="M21.5757 40.6963L23.8963 66.4905L40.8803 58.4218L51.5079 85.0413L66.7948 75.2249L61.0082 48.6727L77.0897 37.6646L71.1613 17.1807L21.5757 40.6963Z" fill="url(#paint16_linear_113_2)"/>
<path d="M51.5258 85.146L66.9713 75.1185L72.6918 76.9527L51.5258 85.146Z" fill="#FF6200" fill-opacity="0.99608"/>
<path d="M66.9722 75.1144L62.1095 52.6277L72.6927 76.9482L66.9722 75.1144Z" fill="#FE8300"/>
<path d="M73.9158 43.4809L81.4719 74.483L90.7451 89.4811L123.939 83.6896L132.737 72.294L133.393 23.2848L113.098 23.5807L117.019 63.1703L108.923 67.8624L99.1255 63.9399L94.9449 58.1036L92.7757 26.6262L74.196 27.3806L73.9158 43.4809Z" fill="url(#paint17_linear_113_2)"/>
<path d="M20.1658 80.392L5.11584 134.958L33.7905 135.439L35.9957 122.404L52.2475 151.422L64.7612 138.776L57.4642 114.303L56.5927 111.858L57.7689 109.977L66.7649 94.5371L59.6249 82.0628L53.1917 84.4966L37.3767 105.196L37.6516 101.186L38.5709 98.3438L35.9958 83.5701L20.1658 80.392Z" fill="url(#paint18_linear_113_2)"/>
<path d="M52.2473 151.424L64.761 138.779L57.464 114.305L72.7712 140.54L52.2473 151.424Z" fill="#FF1000" fill-opacity="0.99608"/>
<path d="M66.7625 94.539L59.6224 82.0647L73.3765 94.4001L66.7625 94.539Z" fill="url(#paint19_linear_113_2)"/>
<path d="M61.0061 48.6741L77.0876 37.666L82.6107 39.4814L61.0061 48.6741Z" fill="#FF5800" fill-opacity="0.99608"/>
<path d="M77.0867 37.6624L71.8075 18.3373L82.6098 39.478L77.0867 37.6624Z" fill="#FF7500"/>
<path d="M68.328 124.416L67.2072 122.966L77.3062 90.8L99.8798 92.7891L78.8796 94.4015L68.328 124.416Z" fill="#FFCD0B" fill-opacity="0.99608"/>
<path d="M67.2104 122.966L68.3312 124.416L66.7171 130.161L65.6947 128.409L67.2104 122.966Z" fill="#FD8800" fill-opacity="0.99608"/>
<path d="M156.862 119.48L154.97 111.637L166.447 112.414L164.517 138.764L162.805 141.425L162.593 114.755L156.837 114.708L157.583 119.03L156.862 119.48Z" fill="url(#paint20_linear_113_2)"/>
<path d="M111.609 94.6676L112.033 149.522L109.568 124.084L106.574 92.2696L141.676 87.5949L111.609 94.6676Z" fill="url(#paint21_linear_113_2)"/>
<path d="M162.755 145.592L181.924 137.6L183.638 116.69L187.455 142.823L162.755 145.592Z" fill="url(#paint22_linear_113_2)"/>
<path d="M162.804 141.428L166.446 112.417L155.062 111.646L150.544 92.1273L156.233 91.4479L185.062 88.142H202.201L200.253 110.255L185.405 113.891L183.64 116.691L181.925 137.601L162.757 145.593L162.804 142.862L163.887 142.521L162.804 141.428Z" fill="url(#paint23_linear_113_2)"/>
<path d="M200.252 110.256L204.185 113.099L185.404 113.892L200.252 110.256Z" fill="url(#paint24_linear_113_2)"/>
<path d="M204.185 113.099L200.252 110.256L202.2 88.1429L204.185 113.099Z" fill="url(#paint25_linear_113_2)"/>
<path d="M37.6523 101.187L37.3774 105.197L53.3867 84.4379L52.6592 84.6631L37.6523 101.187Z" fill="#FEB500" fill-opacity="0.99608"/>
</g>
<defs>
<linearGradient id="paint0_linear_113_2" x1="155.026" y1="-0.531705" x2="155.686" y2="17.8614" gradientUnits="userSpaceOnUse">
<stop stop-color="#91919B" stop-opacity="0.99608"/>
<stop offset="1" stop-color="#E6E6E6" stop-opacity="0.99608"/>
</linearGradient>
<linearGradient id="paint1_linear_113_2" x1="106.433" y1="-0.578557" x2="106.473" y2="18.3669" gradientUnits="userSpaceOnUse">
<stop stop-color="#91919B" stop-opacity="0.99608"/>
<stop offset="1" stop-color="#E6E6E6" stop-opacity="0.99608"/>
</linearGradient>
<linearGradient id="paint2_linear_113_2" x1="20.4874" y1="82.1215" x2="38.5278" y2="82.1215" gradientUnits="userSpaceOnUse">
<stop stop-color="#E53300" stop-opacity="0.99608"/>
<stop offset="1" stop-color="#FE6200"/>
</linearGradient>
<linearGradient id="paint3_linear_113_2" x1="79.5272" y1="-0.630694" x2="79.5937" y2="17.1958" gradientUnits="userSpaceOnUse">
<stop stop-color="#91919B" stop-opacity="0.99608"/>
<stop offset="1" stop-color="#E6E6E6" stop-opacity="0.99608"/>
</linearGradient>
<linearGradient id="paint4_linear_113_2" x1="90.7473" y1="57.0471" x2="135.632" y2="57.0471" gradientUnits="userSpaceOnUse">
<stop stop-color="#EA8000"/>
<stop offset="1" stop-color="#FE6F00"/>
</linearGradient>
<linearGradient id="paint5_linear_113_2" x1="134.186" y1="25.7129" x2="134.186" y2="73.0878" gradientUnits="userSpaceOnUse">
<stop stop-color="#F47E00"/>
<stop offset="1" stop-color="#F48600" stop-opacity="0.99608"/>
</linearGradient>
<linearGradient id="paint6_linear_113_2" x1="90.7473" y1="57.0471" x2="135.632" y2="57.0471" gradientUnits="userSpaceOnUse">
<stop stop-color="#EA8000"/>
<stop offset="1" stop-color="#FE6F00"/>
</linearGradient>
<linearGradient id="paint7_linear_113_2" x1="90.7473" y1="57.0471" x2="135.632" y2="57.0471" gradientUnits="userSpaceOnUse">
<stop stop-color="#EA8000"/>
<stop offset="1" stop-color="#FE6F00"/>
</linearGradient>
<linearGradient id="paint8_linear_113_2" x1="133.752" y1="81.2168" x2="161.678" y2="81.2168" gradientUnits="userSpaceOnUse">
<stop stop-color="#FE7900"/>
<stop offset="1" stop-color="#E14A00"/>
</linearGradient>
<linearGradient id="paint9_linear_113_2" x1="128.935" y1="57.2023" x2="190.171" y2="57.2023" gradientUnits="userSpaceOnUse">
<stop stop-color="#FFAE00" stop-opacity="0.99608"/>
<stop offset="1" stop-color="#FF8100" stop-opacity="0.99608"/>
</linearGradient>
<linearGradient id="paint10_linear_113_2" x1="136.404" y1="140.905" x2="119.166" y2="107.036" gradientUnits="userSpaceOnUse">
<stop stop-color="#FE5100" stop-opacity="0.99608"/>
<stop offset="1" stop-color="#FFB100" stop-opacity="0.99608"/>
</linearGradient>
<linearGradient id="paint11_linear_113_2" x1="72.773" y1="140.541" x2="85.5497" y2="100.805" gradientUnits="userSpaceOnUse">
<stop stop-color="#FF4100"/>
<stop offset="1" stop-color="#FFAF00" stop-opacity="0.99608"/>
</linearGradient>
<linearGradient id="paint12_linear_113_2" x1="101.262" y1="96.7652" x2="111.458" y2="144.985" gradientUnits="userSpaceOnUse">
<stop stop-color="#EC7300"/>
<stop offset="1" stop-color="#FF1600"/>
</linearGradient>
<linearGradient id="paint13_linear_113_2" x1="150.103" y1="128.598" x2="151.358" y2="129.853" gradientUnits="userSpaceOnUse">
<stop stop-color="#DF4D00" stop-opacity="0.99608"/>
<stop offset="1" stop-color="#FE1800"/>
</linearGradient>
<linearGradient id="paint14_linear_113_2" x1="149.38" y1="92.0023" x2="154.613" y2="122.004" gradientUnits="userSpaceOnUse">
<stop stop-color="#FE8D00" stop-opacity="0.99608"/>
<stop offset="1" stop-color="#FE3800"/>
</linearGradient>
<linearGradient id="paint15_linear_113_2" x1="52.9316" y1="0.450736" x2="52.4615" y2="15.1163" gradientUnits="userSpaceOnUse">
<stop stop-color="#95959E" stop-opacity="0.99608"/>
<stop offset="1" stop-color="#E6E6E6"/>
</linearGradient>
<linearGradient id="paint16_linear_113_2" x1="27.8359" y1="44.94" x2="60.8345" y2="69.8636" gradientUnits="userSpaceOnUse">
<stop stop-color="#FF8300" stop-opacity="0.99608"/>
<stop offset="1" stop-color="#FFA200" stop-opacity="0.99608"/>
</linearGradient>
<linearGradient id="paint17_linear_113_2" x1="103.795" y1="24.4556" x2="101.954" y2="89.4789" gradientUnits="userSpaceOnUse">
<stop stop-color="#FF9D00" stop-opacity="0.99608"/>
<stop offset="1" stop-color="#FFBB00"/>
</linearGradient>
<linearGradient id="paint18_linear_113_2" x1="19.4243" y1="148.719" x2="47.8936" y2="91.5367" gradientUnits="userSpaceOnUse">
<stop stop-color="#FF0A00" stop-opacity="0.99608"/>
<stop offset="1" stop-color="#FE8B00"/>
</linearGradient>
<linearGradient id="paint19_linear_113_2" x1="61.5484" y1="85.8467" x2="69.3892" y2="94.3039" gradientUnits="userSpaceOnUse">
<stop stop-color="#FF5800" stop-opacity="0.99608"/>
<stop offset="1" stop-color="#FE7D00" stop-opacity="0.99608"/>
</linearGradient>
<linearGradient id="paint20_linear_113_2" x1="163.319" y1="135.463" x2="163.939" y2="127.649" gradientUnits="userSpaceOnUse">
<stop stop-color="#FF7500" stop-opacity="0.99608"/>
<stop offset="1" stop-color="#FFA400" stop-opacity="0.99608"/>
</linearGradient>
<linearGradient id="paint21_linear_113_2" x1="118.478" y1="89.501" x2="111.644" y2="149.939" gradientUnits="userSpaceOnUse">
<stop stop-color="#FFD402"/>
<stop offset="1" stop-color="#FE6A00"/>
</linearGradient>
<linearGradient id="paint22_linear_113_2" x1="184.1" y1="139.969" x2="183.737" y2="124.585" gradientUnits="userSpaceOnUse">
<stop stop-color="#FE1800"/>
<stop offset="1" stop-color="#FF6000"/>
</linearGradient>
<linearGradient id="paint23_linear_113_2" x1="161.412" y1="103.963" x2="177.191" y2="116.691" gradientUnits="userSpaceOnUse">
<stop stop-color="#FF9000" stop-opacity="0.99608"/>
<stop offset="1" stop-color="#FF5F00" stop-opacity="0.99608"/>
</linearGradient>
<linearGradient id="paint24_linear_113_2" x1="185.404" y1="112.074" x2="203.622" y2="112.074" gradientUnits="userSpaceOnUse">
<stop stop-color="#FF5F00"/>
<stop offset="1" stop-color="#FE1800"/>
</linearGradient>
<linearGradient id="paint25_linear_113_2" x1="201.937" y1="111.498" x2="201.839" y2="90.0775" gradientUnits="userSpaceOnUse">
<stop stop-color="#FF1D00"/>
<stop offset="1" stop-color="#FF5F00"/>
</linearGradient>
<clipPath id="clip0_113_2">
<rect width="210" height="155" fill="white"/>
</clipPath>
</defs>
</svg>

