<svg width="210" height="155" viewBox="0 0 210 155" fill="none" xmlns="http://www.w3.org/2000/svg">
<path d="M91.0967 26.5195H91.1105C96.2081 8.69874 118.421 0 141.057 0C156.699 0 170.741 4.95188 180.367 12.8134C174.622 13.0842 168.95 14.2115 163.538 16.1578C171.317 19.0489 177.999 23.4966 182.95 28.9989C179.214 28.3557 175.426 28.0693 171.636 28.1431C180.951 41.6372 185.928 57.652 185.902 74.0492C185.902 118.757 149.659 155 104.951 155C60.9321 155 24 118.144 24 74.0492C24 67.0851 24.9252 59.8944 26.7223 53.15C27.1941 51.7345 27.8509 50.3769 28.7229 49.8796C29.8146 49.2574 30.8091 51.1123 30.9687 51.716C32.1524 56.1498 33.7451 60.464 35.7263 64.6034C35.5528 55.3611 39.5009 46.9422 44.9316 39.6613C48.5535 34.8065 51.9118 30.308 53.4615 17.3258C53.5656 16.4538 54.3913 15.827 55.2262 16.1C67.0126 19.9578 73.3129 39.585 72.3346 55.9972C78.8453 56.9292 78.8153 50.1271 78.8153 50.1271C76.7337 43.7296 78.1214 31.8391 91.0735 26.5195H91.0967Z" fill="url(#paint0_linear_112_72)"/>
<path opacity="0.9" d="M183.253 53.4344C185.222 97.9574 148.62 136.344 103.989 136.344C62.2065 136.344 27.9689 104.05 24.872 63.0607C24.3194 66.8989 24.0289 70.7704 24.0023 74.6482C24.3192 118.505 61.1611 155 104.953 155C149.661 155 185.904 118.757 185.904 74.0492C185.904 66.9255 184.981 60.0169 183.253 53.4344Z" fill="url(#paint1_radial_112_72)"/>
<path style="mix-blend-mode:screen" d="M102.978 32.4196C102.106 30.877 98.0792 28.5941 96.3191 28.1963C102.98 6.86 136.915 0.309927 157.684 4.08455C166.328 5.65731 177.092 10.3663 180.367 12.8134C170.741 4.95188 156.697 0 141.057 0C118.421 0 96.2081 8.69874 91.1105 26.5195H91.0735C78.1214 31.8391 76.7337 43.7343 78.8153 50.1294C80.8136 42.4992 90.3218 33.1228 102.978 32.4196Z" fill="url(#paint2_radial_112_72)"/>
<path d="M126.502 17.6843C108.318 21.2623 102.377 22.4326 96.2914 28.2171C103.126 10.1235 120.572 6.45525 141.36 14.703C136.412 15.723 131.46 16.7175 126.502 17.6866V17.6843Z" fill="url(#paint3_linear_112_72)"/>
<path d="M28.3945 50.6729C23.4264 71.0124 27.2658 94.9183 49.8349 114.98C43.116 107.632 34.9122 80.5021 53.0151 61.1202C54.234 59.8134 56.3317 60.7733 56.3988 62.5588C57.8906 102.84 90.3935 127.442 127.867 122.842C116.256 122.19 77.8577 108.74 106.422 103.42C121.351 100.638 144.76 96.2783 144.76 75.2727C144.76 41.2225 118.433 31.2679 102.467 32.7481C91.5407 33.7611 81.8151 40.6952 78.8222 50.1248C79.9717 53.8416 75.3899 56.4436 72.3346 56.0064C73.3152 39.5965 67.0149 19.9579 55.2262 16.1C54.3936 15.8271 53.5655 16.4539 53.4615 17.3258C51.9118 30.308 48.5535 34.8066 44.9339 39.6613C39.5009 46.9446 35.5528 55.3611 35.7263 64.6034C33.7451 60.464 32.1524 56.1498 30.9687 51.716C30.8369 51.2164 30.1129 49.8218 29.2387 49.757C28.7645 49.7223 28.5124 50.1849 28.3945 50.6729Z" fill="url(#paint4_radial_112_72)"/>
<path style="mix-blend-mode:screen" d="M96.3908 105.481C118.372 123.33 162.579 109.947 162.579 66.5508C144.732 93.6022 122.001 112.263 96.3932 105.481H96.3908Z" fill="url(#paint5_linear_112_72)"/>
<path style="mix-blend-mode:screen" d="M53.0151 61.1202C53.2149 60.8966 53.4668 60.7256 53.7483 60.6222C54.03 60.5191 54.3325 60.4867 54.6295 60.5281C38.4254 80.2917 51.4955 115.001 60.4649 123.529C60.9668 124.949 51.9558 117.564 50.7138 115.836C43.8908 110.047 34.1119 81.3602 53.0151 61.1202Z" fill="url(#paint6_linear_112_72)"/>
<path d="M104.951 107.116C126.937 107.116 144.762 92.573 144.762 74.632C144.762 56.691 126.937 42.1476 104.951 42.1476C86.1934 42.1476 65.13 54.3503 65.1392 75.1061C65.1485 107.179 99.0322 125.631 127.915 122.837C125.746 122.585 112.211 121.866 103.064 111.518C102.238 110.586 100.806 108.957 101.456 107.9C102.104 106.843 103.889 107.114 104.949 107.114L104.951 107.116Z" fill="url(#paint7_linear_112_72)"/>
<path opacity="0.6" d="M140.426 59.8712L108.961 89.9803C106.17 91.9647 103.198 92.1081 100.265 90.3087L69.4042 59.9822C70.2847 58.5672 71.2744 57.2232 72.3646 55.9624L75.6027 58.9923C83.707 66.5878 90.2594 72.7239 99.4947 80.6061C103.663 84.1634 104.958 84.094 109.047 80.6061C119.612 71.5859 127.339 64.7629 137.384 55.7913C138.504 57.0694 139.52 58.4344 140.423 59.8735L140.426 59.8712Z" fill="white"/>
<mask id="mask0_112_72" style="mask-type:luminance" maskUnits="userSpaceOnUse" x="65" y="59" width="80" height="65">
<path d="M144.762 74.632C144.762 92.573 126.937 107.116 104.951 107.116C103.889 107.116 102.106 106.843 101.456 107.903C100.806 108.957 102.238 110.586 103.064 111.518C111.658 121.241 124.127 122.465 127.4 122.786L127.915 122.837C99.0322 125.631 65.1485 107.179 65.1392 75.1061C65.1091 69.7661 66.5952 64.5272 69.425 59.9984L100.436 88.1646C102.643 90.1676 106.359 90.1676 108.566 88.1646L140.164 59.4641C143.102 63.9927 144.762 69.1551 144.762 74.632Z" fill="white"/>
</mask>
<g mask="url(#mask0_112_72)">
<path opacity="0.7" d="M55.9178 37.1656H156.544V128.402H55.9178V37.1656Z" fill="url(#paint8_linear_112_72)"/>
<g filter="url(#filter0_f_112_72)">
<path fill-rule="evenodd" clip-rule="evenodd" d="M95.7086 88.3543C89.8454 82.2529 72.286 61.9805 72.286 61.9805L73.6437 62.0407L101.135 82.5721C103.193 84.0685 106.13 84.0523 108.17 82.5374L135.127 62.0684L136.556 61.9551C136.556 61.9551 119.571 81.7464 113.064 88.2664C106.558 94.7864 101.572 94.4557 95.7086 88.3543Z" fill="#458FCD"/>
</g>
</g>
<path d="M110.536 25.8974C114.797 24.5559 114.422 20.3395 114.422 20.3395C114.422 20.3395 112.292 17.83 108.071 19.2201C104.12 20.5222 103.508 23.337 103.508 23.337C103.508 23.337 105.665 27.4308 110.536 25.8974Z" fill="white"/>
<defs>
<filter id="filter0_f_112_72" x="40.286" y="29.9551" width="128.27" height="95.0887" filterUnits="userSpaceOnUse" color-interpolation-filters="sRGB">
<feFlood flood-opacity="0" result="BackgroundImageFix"/>
<feBlend mode="normal" in="SourceGraphic" in2="BackgroundImageFix" result="shape"/>
<feGaussianBlur stdDeviation="16" result="effect1_foregroundBlur_112_72"/>
</filter>
<linearGradient id="paint0_linear_112_72" x1="52.0969" y1="26.6814" x2="166.214" y2="133.125" gradientUnits="userSpaceOnUse">
<stop stop-color="#1B91F3"/>
<stop offset="1" stop-color="#0B68CB"/>
</linearGradient>
<radialGradient id="paint1_radial_112_72" cx="0" cy="0" r="1" gradientUnits="userSpaceOnUse" gradientTransform="translate(51.8864 63.3058) rotate(66.5177) scale(68.452 65.5746)">
<stop offset="0.53" stop-color="#0B4186" stop-opacity="0"/>
<stop offset="1" stop-color="#0B4186" stop-opacity="0.45"/>
</radialGradient>
<radialGradient id="paint2_radial_112_72" cx="0" cy="0" r="1" gradientUnits="userSpaceOnUse" gradientTransform="translate(107.032 35.1928) rotate(-127.997) scale(14.6336 24.2154)">
<stop stop-color="#EF3ACC" stop-opacity="0"/>
<stop offset="1" stop-color="#EF3ACC" stop-opacity="0.64"/>
</radialGradient>
<linearGradient id="paint3_linear_112_72" x1="83.8504" y1="53.9294" x2="124.913" y2="8.21766" gradientUnits="userSpaceOnUse">
<stop stop-color="#0F5DB0"/>
<stop offset="1" stop-color="#0F5DB0" stop-opacity="0"/>
</linearGradient>
<radialGradient id="paint4_radial_112_72" cx="0" cy="0" r="1" gradientUnits="userSpaceOnUse" gradientTransform="translate(74.4208 118.156) rotate(-64.2624) scale(106.789 131.916)">
<stop offset="0.02" stop-color="#094188"/>
<stop offset="0.97" stop-color="#0B4186" stop-opacity="0"/>
</radialGradient>
<linearGradient id="paint5_linear_112_72" x1="155.816" y1="87.0267" x2="136.723" y2="133.906" gradientUnits="userSpaceOnUse">
<stop stop-color="#E247C4" stop-opacity="0"/>
<stop offset="1" stop-color="#E247C4" stop-opacity="0.64"/>
</linearGradient>
<linearGradient id="paint6_linear_112_72" x1="37.417" y1="44.9856" x2="54.2386" y2="112.688" gradientUnits="userSpaceOnUse">
<stop offset="0.1" stop-color="#EF3ACC"/>
<stop offset="1" stop-color="#EF3ACC" stop-opacity="0"/>
</linearGradient>
<linearGradient id="paint7_linear_112_72" x1="104.951" y1="54.0427" x2="104.951" y2="122.504" gradientUnits="userSpaceOnUse">
<stop stop-color="white"/>
<stop offset="0.91" stop-color="#BEE1FE"/>
<stop offset="1" stop-color="#96CEFD"/>
</linearGradient>
<linearGradient id="paint8_linear_112_72" x1="106.232" y1="92.7835" x2="106.232" y2="121.463" gradientUnits="userSpaceOnUse">
<stop stop-color="#BCE0FD"/>
<stop offset="1" stop-color="#88CCFC"/>
</linearGradient>
</defs>
</svg>

